<mxfile host="app.diagrams.net" modified="2020-08-18T13:25:02.844Z" agent="5.0 (Windows NT 10.0; Win64; x64) AppleWebKit/537.36 (KHTML, like Gecko) Chrome/84.0.4147.125 Safari/537.36" etag="2i-dP0z-Wu77mHGwQBgG" version="13.6.2" type="github" pages="3">
  <diagram id="nNAqZT9nvM8v8T4sawM7" name="Page-1">
    <mxGraphModel dx="1468" dy="831" grid="1" gridSize="10" guides="1" tooltips="1" connect="1" arrows="1" fold="1" page="1" pageScale="1" pageWidth="1169" pageHeight="827" math="0" shadow="0">
      <root>
        <mxCell id="0" />
        <mxCell id="1" parent="0" />
        <mxCell id="GrgFFdYea_p_c-kYBRSX-2" value="" style="rounded=0;whiteSpace=wrap;html=1;" parent="1" vertex="1">
          <mxGeometry x="40" y="40" width="1080" height="760" as="geometry" />
        </mxCell>
        <mxCell id="GrgFFdYea_p_c-kYBRSX-3" value="&lt;font style=&quot;font-size: 48px&quot;&gt;ZBC&lt;/font&gt;" style="rounded=1;whiteSpace=wrap;html=1;" parent="1" vertex="1">
          <mxGeometry x="90" y="140" width="200" height="65" as="geometry" />
        </mxCell>
        <mxCell id="GrgFFdYea_p_c-kYBRSX-6" value="" style="rounded=0;whiteSpace=wrap;html=1;" parent="1" vertex="1">
          <mxGeometry x="210" y="350" width="220" height="404" as="geometry" />
        </mxCell>
        <mxCell id="GrgFFdYea_p_c-kYBRSX-11" value="" style="endArrow=none;html=1;exitX=0;exitY=0.25;exitDx=0;exitDy=0;entryX=1;entryY=0.25;entryDx=0;entryDy=0;" parent="1" source="GrgFFdYea_p_c-kYBRSX-6" target="GrgFFdYea_p_c-kYBRSX-6" edge="1">
          <mxGeometry width="50" height="50" relative="1" as="geometry">
            <mxPoint x="230" y="60" as="sourcePoint" />
            <mxPoint x="280" y="10" as="targetPoint" />
          </mxGeometry>
        </mxCell>
        <mxCell id="GrgFFdYea_p_c-kYBRSX-12" value="" style="endArrow=none;html=1;exitX=0;exitY=0.5;exitDx=0;exitDy=0;entryX=1;entryY=0.5;entryDx=0;entryDy=0;" parent="1" source="GrgFFdYea_p_c-kYBRSX-6" target="GrgFFdYea_p_c-kYBRSX-6" edge="1">
          <mxGeometry width="50" height="50" relative="1" as="geometry">
            <mxPoint x="230" y="60" as="sourcePoint" />
            <mxPoint x="280" y="10" as="targetPoint" />
          </mxGeometry>
        </mxCell>
        <mxCell id="GrgFFdYea_p_c-kYBRSX-13" value="" style="endArrow=none;html=1;entryX=1;entryY=0.75;entryDx=0;entryDy=0;exitX=0;exitY=0.75;exitDx=0;exitDy=0;" parent="1" source="GrgFFdYea_p_c-kYBRSX-6" target="GrgFFdYea_p_c-kYBRSX-6" edge="1">
          <mxGeometry width="50" height="50" relative="1" as="geometry">
            <mxPoint x="230" y="150" as="sourcePoint" />
            <mxPoint x="280" y="100" as="targetPoint" />
          </mxGeometry>
        </mxCell>
        <mxCell id="GrgFFdYea_p_c-kYBRSX-14" value="" style="endArrow=none;html=1;entryX=1.009;entryY=0.117;entryDx=0;entryDy=0;entryPerimeter=0;exitX=0;exitY=0.117;exitDx=0;exitDy=0;exitPerimeter=0;" parent="1" source="GrgFFdYea_p_c-kYBRSX-6" target="GrgFFdYea_p_c-kYBRSX-6" edge="1">
          <mxGeometry width="50" height="50" relative="1" as="geometry">
            <mxPoint x="230" y="90" as="sourcePoint" />
            <mxPoint x="280" y="40" as="targetPoint" />
          </mxGeometry>
        </mxCell>
        <mxCell id="GrgFFdYea_p_c-kYBRSX-19" style="edgeStyle=orthogonalEdgeStyle;rounded=0;orthogonalLoop=1;jettySize=auto;html=1;exitX=0.5;exitY=1;exitDx=0;exitDy=0;" parent="1" edge="1">
          <mxGeometry relative="1" as="geometry">
            <mxPoint x="780" y="650" as="sourcePoint" />
            <mxPoint x="780" y="650" as="targetPoint" />
          </mxGeometry>
        </mxCell>
        <mxCell id="GrgFFdYea_p_c-kYBRSX-21" value="" style="endArrow=none;html=1;exitX=0;exitY=0.25;exitDx=0;exitDy=0;entryX=1;entryY=0.25;entryDx=0;entryDy=0;" parent="1" edge="1">
          <mxGeometry width="50" height="50" relative="1" as="geometry">
            <mxPoint x="210" y="500" as="sourcePoint" />
            <mxPoint x="430" y="500" as="targetPoint" />
          </mxGeometry>
        </mxCell>
        <mxCell id="GrgFFdYea_p_c-kYBRSX-22" value="" style="endArrow=none;html=1;exitX=0;exitY=0.25;exitDx=0;exitDy=0;entryX=1;entryY=0.25;entryDx=0;entryDy=0;" parent="1" edge="1">
          <mxGeometry width="50" height="50" relative="1" as="geometry">
            <mxPoint x="210" y="610" as="sourcePoint" />
            <mxPoint x="430" y="610" as="targetPoint" />
          </mxGeometry>
        </mxCell>
        <mxCell id="GrgFFdYea_p_c-kYBRSX-23" value="" style="endArrow=none;html=1;exitX=0;exitY=0.25;exitDx=0;exitDy=0;entryX=1;entryY=0.25;entryDx=0;entryDy=0;" parent="1" edge="1">
          <mxGeometry width="50" height="50" relative="1" as="geometry">
            <mxPoint x="210" y="710" as="sourcePoint" />
            <mxPoint x="430" y="710" as="targetPoint" />
          </mxGeometry>
        </mxCell>
        <mxCell id="GrgFFdYea_p_c-kYBRSX-25" value="" style="rounded=0;whiteSpace=wrap;html=1;strokeColor=#000000;" parent="1" vertex="1">
          <mxGeometry x="430" y="350" width="20" height="404" as="geometry" />
        </mxCell>
        <mxCell id="GrgFFdYea_p_c-kYBRSX-26" value="" style="rounded=1;whiteSpace=wrap;html=1;strokeColor=#000000;fillColor=#CCCCCC;" parent="1" vertex="1">
          <mxGeometry x="430" y="450" width="20" height="90" as="geometry" />
        </mxCell>
        <mxCell id="GrgFFdYea_p_c-kYBRSX-27" value="Billede af uddannelsen" style="text;html=1;strokeColor=none;fillColor=none;align=center;verticalAlign=middle;whiteSpace=wrap;rounded=0;" parent="1" vertex="1">
          <mxGeometry x="715" y="440" width="130" height="70" as="geometry" />
        </mxCell>
        <mxCell id="GrgFFdYea_p_c-kYBRSX-28" value="Navn på uddannelsen" style="text;html=1;strokeColor=none;fillColor=none;align=center;verticalAlign=middle;whiteSpace=wrap;rounded=0;" parent="1" vertex="1">
          <mxGeometry x="255" y="340" width="130" height="70" as="geometry" />
        </mxCell>
        <mxCell id="GrgFFdYea_p_c-kYBRSX-29" value="Navn på uddannelsen" style="text;html=1;strokeColor=none;fillColor=none;align=center;verticalAlign=middle;whiteSpace=wrap;rounded=0;" parent="1" vertex="1">
          <mxGeometry x="255" y="390" width="130" height="70" as="geometry" />
        </mxCell>
        <mxCell id="GrgFFdYea_p_c-kYBRSX-30" value="Navn på uddannelsen" style="text;html=1;strokeColor=none;fillColor=none;align=center;verticalAlign=middle;whiteSpace=wrap;rounded=0;" parent="1" vertex="1">
          <mxGeometry x="255" y="700" width="130" height="70" as="geometry" />
        </mxCell>
        <mxCell id="GrgFFdYea_p_c-kYBRSX-31" value="Navn på uddannelsen" style="text;html=1;strokeColor=none;fillColor=none;align=center;verticalAlign=middle;whiteSpace=wrap;rounded=0;" parent="1" vertex="1">
          <mxGeometry x="250" y="640" width="130" height="70" as="geometry" />
        </mxCell>
        <mxCell id="GrgFFdYea_p_c-kYBRSX-32" value="Navn på uddannelsen" style="text;html=1;strokeColor=none;fillColor=none;align=center;verticalAlign=middle;whiteSpace=wrap;rounded=0;" parent="1" vertex="1">
          <mxGeometry x="250" y="600" width="130" height="70" as="geometry" />
        </mxCell>
        <mxCell id="GrgFFdYea_p_c-kYBRSX-33" value="Navn på uddannelsen" style="text;html=1;strokeColor=none;fillColor=none;align=center;verticalAlign=middle;whiteSpace=wrap;rounded=0;" parent="1" vertex="1">
          <mxGeometry x="255" y="550" width="130" height="70" as="geometry" />
        </mxCell>
        <mxCell id="GrgFFdYea_p_c-kYBRSX-34" value="Navn på uddannelsen" style="text;html=1;strokeColor=none;fillColor=none;align=center;verticalAlign=middle;whiteSpace=wrap;rounded=0;" parent="1" vertex="1">
          <mxGeometry x="255" y="490" width="130" height="70" as="geometry" />
        </mxCell>
        <mxCell id="GrgFFdYea_p_c-kYBRSX-35" value="Navn på uddannelsen" style="text;html=1;strokeColor=none;fillColor=none;align=center;verticalAlign=middle;whiteSpace=wrap;rounded=0;" parent="1" vertex="1">
          <mxGeometry x="250" y="440" width="130" height="70" as="geometry" />
        </mxCell>
        <mxCell id="GrgFFdYea_p_c-kYBRSX-36" value="" style="rounded=0;whiteSpace=wrap;html=1;strokeColor=#000000;fillColor=none;" parent="1" vertex="1">
          <mxGeometry x="400" y="230" width="410" height="60" as="geometry" />
        </mxCell>
        <mxCell id="GrgFFdYea_p_c-kYBRSX-37" value="Navn på uddannelsen" style="text;html=1;strokeColor=none;fillColor=none;align=center;verticalAlign=middle;whiteSpace=wrap;rounded=0;" parent="1" vertex="1">
          <mxGeometry x="540" y="225" width="130" height="70" as="geometry" />
        </mxCell>
        <mxCell id="GrgFFdYea_p_c-kYBRSX-38" value="" style="rounded=1;whiteSpace=wrap;html=1;strokeColor=#000000;fillColor=none;" parent="1" vertex="1">
          <mxGeometry x="820" y="230" width="60" height="60" as="geometry" />
        </mxCell>
        <mxCell id="GrgFFdYea_p_c-kYBRSX-39" value="" style="verticalLabelPosition=bottom;verticalAlign=top;html=1;shape=mxgraph.basic.tick;strokeColor=#000000;fillColor=none;" parent="1" vertex="1">
          <mxGeometry x="830" y="240" width="40" height="40" as="geometry" />
        </mxCell>
        <mxCell id="GrgFFdYea_p_c-kYBRSX-40" value="" style="rounded=0;whiteSpace=wrap;html=1;strokeColor=#000000;fillColor=none;" parent="1" vertex="1">
          <mxGeometry x="40" y="60" width="1080" height="20" as="geometry" />
        </mxCell>
        <mxCell id="GrgFFdYea_p_c-kYBRSX-41" value="" style="rounded=1;whiteSpace=wrap;html=1;strokeColor=#000000;fillColor=none;" parent="1" vertex="1">
          <mxGeometry x="130" y="60" width="940" height="20" as="geometry" />
        </mxCell>
        <mxCell id="GrgFFdYea_p_c-kYBRSX-42" value="" style="rounded=0;whiteSpace=wrap;html=1;strokeColor=#000000;fillColor=none;" parent="1" vertex="1">
          <mxGeometry x="40" y="40" width="1080" height="20" as="geometry" />
        </mxCell>
        <mxCell id="GrgFFdYea_p_c-kYBRSX-43" value="" style="rounded=1;whiteSpace=wrap;html=1;strokeColor=#000000;fillColor=none;" parent="1" vertex="1">
          <mxGeometry x="40" y="40" width="150" height="20" as="geometry" />
        </mxCell>
        <mxCell id="GrgFFdYea_p_c-kYBRSX-44" value="" style="rounded=1;whiteSpace=wrap;html=1;strokeColor=#000000;fillColor=none;" parent="1" vertex="1">
          <mxGeometry x="190" y="40" width="150" height="20" as="geometry" />
        </mxCell>
        <mxCell id="GrgFFdYea_p_c-kYBRSX-45" value="x" style="text;html=1;strokeColor=none;fillColor=none;align=center;verticalAlign=middle;whiteSpace=wrap;rounded=0;" parent="1" vertex="1">
          <mxGeometry x="150" y="40" width="40" height="20" as="geometry" />
        </mxCell>
        <mxCell id="GrgFFdYea_p_c-kYBRSX-46" value="x" style="text;html=1;strokeColor=none;fillColor=none;align=center;verticalAlign=middle;whiteSpace=wrap;rounded=0;" parent="1" vertex="1">
          <mxGeometry x="300" y="40" width="40" height="20" as="geometry" />
        </mxCell>
        <mxCell id="GrgFFdYea_p_c-kYBRSX-48" value="" style="endArrow=classic;html=1;" parent="1" edge="1">
          <mxGeometry width="50" height="50" relative="1" as="geometry">
            <mxPoint x="60" y="70" as="sourcePoint" />
            <mxPoint x="40" y="69.75999999999999" as="targetPoint" />
          </mxGeometry>
        </mxCell>
        <mxCell id="GrgFFdYea_p_c-kYBRSX-51" value="" style="endArrow=classic;html=1;entryX=0.056;entryY=0.065;entryDx=0;entryDy=0;entryPerimeter=0;" parent="1" edge="1">
          <mxGeometry width="50" height="50" relative="1" as="geometry">
            <mxPoint x="69.52" y="70.3" as="sourcePoint" />
            <mxPoint x="90.00000000000001" y="69.69999999999997" as="targetPoint" />
          </mxGeometry>
        </mxCell>
        <mxCell id="GrgFFdYea_p_c-kYBRSX-52" value="" style="shape=mxgraph.bpmn.loop;html=1;outlineConnect=0;strokeColor=#000000;fillColor=none;" parent="1" vertex="1">
          <mxGeometry x="100" y="63" width="14" height="14" as="geometry" />
        </mxCell>
        <mxCell id="GrgFFdYea_p_c-kYBRSX-55" value="" style="rounded=1;whiteSpace=wrap;html=1;strokeColor=#000000;fillColor=none;" parent="1" vertex="1">
          <mxGeometry x="610" y="670" width="340" height="60" as="geometry" />
        </mxCell>
        <mxCell id="GrgFFdYea_p_c-kYBRSX-56" value="Link til Fx UG.dk eller hvis ZBC har en" style="text;html=1;strokeColor=none;fillColor=none;align=center;verticalAlign=middle;whiteSpace=wrap;rounded=0;" parent="1" vertex="1">
          <mxGeometry x="630" y="680" width="310" height="40" as="geometry" />
        </mxCell>
        <mxCell id="7n_AQ4aNLq_e9Mpv68H4-1" value="" style="rounded=1;whiteSpace=wrap;html=1;strokeColor=#000000;fillColor=none;" vertex="1" parent="1">
          <mxGeometry x="610" y="350" width="340" height="270" as="geometry" />
        </mxCell>
      </root>
    </mxGraphModel>
  </diagram>
  <diagram id="cFUYZVdX-Y0YMb4aGGWY" name="Page-2">
    <mxGraphModel dx="1783" dy="1009" grid="1" gridSize="10" guides="1" tooltips="1" connect="1" arrows="1" fold="1" page="1" pageScale="1" pageWidth="1169" pageHeight="827" math="0" shadow="0">
      <root>
        <mxCell id="JO9bQrJqRlJCbGx5fsAn-0" />
        <mxCell id="JO9bQrJqRlJCbGx5fsAn-1" parent="JO9bQrJqRlJCbGx5fsAn-0" />
        <mxCell id="Mxd06R3ysXnnv73_pPir-0" value="" style="rounded=0;whiteSpace=wrap;html=1;strokeColor=#000000;fillColor=#FFFFFF;" vertex="1" parent="JO9bQrJqRlJCbGx5fsAn-1">
          <mxGeometry x="40" y="40" width="1080" height="760" as="geometry" />
        </mxCell>
        <mxCell id="jMITzKMTbk_WMGNBVf2U-0" value="" style="rounded=0;whiteSpace=wrap;html=1;strokeColor=#000000;fillColor=none;" vertex="1" parent="JO9bQrJqRlJCbGx5fsAn-1">
          <mxGeometry x="40" y="60" width="1080" height="20" as="geometry" />
        </mxCell>
        <mxCell id="jMITzKMTbk_WMGNBVf2U-1" value="" style="rounded=1;whiteSpace=wrap;html=1;strokeColor=#000000;fillColor=none;" vertex="1" parent="JO9bQrJqRlJCbGx5fsAn-1">
          <mxGeometry x="130" y="60" width="940" height="20" as="geometry" />
        </mxCell>
        <mxCell id="jMITzKMTbk_WMGNBVf2U-2" value="" style="rounded=0;whiteSpace=wrap;html=1;strokeColor=#000000;fillColor=none;" vertex="1" parent="JO9bQrJqRlJCbGx5fsAn-1">
          <mxGeometry x="40" y="40" width="1080" height="20" as="geometry" />
        </mxCell>
        <mxCell id="jMITzKMTbk_WMGNBVf2U-3" value="" style="rounded=1;whiteSpace=wrap;html=1;strokeColor=#000000;fillColor=none;" vertex="1" parent="JO9bQrJqRlJCbGx5fsAn-1">
          <mxGeometry x="40" y="40" width="150" height="20" as="geometry" />
        </mxCell>
        <mxCell id="jMITzKMTbk_WMGNBVf2U-4" value="" style="rounded=1;whiteSpace=wrap;html=1;strokeColor=#000000;fillColor=none;" vertex="1" parent="JO9bQrJqRlJCbGx5fsAn-1">
          <mxGeometry x="190" y="40" width="150" height="20" as="geometry" />
        </mxCell>
        <mxCell id="jMITzKMTbk_WMGNBVf2U-5" value="x" style="text;html=1;strokeColor=none;fillColor=none;align=center;verticalAlign=middle;whiteSpace=wrap;rounded=0;" vertex="1" parent="JO9bQrJqRlJCbGx5fsAn-1">
          <mxGeometry x="150" y="40" width="40" height="20" as="geometry" />
        </mxCell>
        <mxCell id="jMITzKMTbk_WMGNBVf2U-6" value="x" style="text;html=1;strokeColor=none;fillColor=none;align=center;verticalAlign=middle;whiteSpace=wrap;rounded=0;" vertex="1" parent="JO9bQrJqRlJCbGx5fsAn-1">
          <mxGeometry x="300" y="40" width="40" height="20" as="geometry" />
        </mxCell>
        <mxCell id="jMITzKMTbk_WMGNBVf2U-7" value="" style="endArrow=classic;html=1;" edge="1" parent="JO9bQrJqRlJCbGx5fsAn-1">
          <mxGeometry width="50" height="50" relative="1" as="geometry">
            <mxPoint x="60" y="70" as="sourcePoint" />
            <mxPoint x="40" y="69.75999999999999" as="targetPoint" />
          </mxGeometry>
        </mxCell>
        <mxCell id="jMITzKMTbk_WMGNBVf2U-8" value="" style="endArrow=classic;html=1;entryX=0.056;entryY=0.065;entryDx=0;entryDy=0;entryPerimeter=0;" edge="1" parent="JO9bQrJqRlJCbGx5fsAn-1">
          <mxGeometry width="50" height="50" relative="1" as="geometry">
            <mxPoint x="69.51999999999998" y="70.29999999999995" as="sourcePoint" />
            <mxPoint x="90" y="69.69999999999993" as="targetPoint" />
          </mxGeometry>
        </mxCell>
        <mxCell id="qaEanr3Yg1RDs8EjEVoY-0" value="" style="shape=mxgraph.bpmn.loop;html=1;outlineConnect=0;strokeColor=#000000;fillColor=none;" vertex="1" parent="JO9bQrJqRlJCbGx5fsAn-1">
          <mxGeometry x="100" y="63" width="14" height="14" as="geometry" />
        </mxCell>
        <mxCell id="lVYrrcsxLA4eKKGw7_TD-0" value="&lt;font style=&quot;font-size: 48px&quot;&gt;ZBC&lt;/font&gt;" style="rounded=1;whiteSpace=wrap;html=1;" vertex="1" parent="JO9bQrJqRlJCbGx5fsAn-1">
          <mxGeometry x="90" y="140" width="200" height="65" as="geometry" />
        </mxCell>
        <mxCell id="_9WxbNHID54HXvTMNS11-0" value="" style="rounded=1;whiteSpace=wrap;html=1;strokeColor=#000000;fillColor=#FFFFFF;" vertex="1" parent="JO9bQrJqRlJCbGx5fsAn-1">
          <mxGeometry x="380" y="190" width="480" height="60" as="geometry" />
        </mxCell>
        <mxCell id="J_HP3mN86eS4cHaUZO_1-0" value="" style="endArrow=none;html=1;exitX=0.814;exitY=0.022;exitDx=0;exitDy=0;exitPerimeter=0;" edge="1" parent="JO9bQrJqRlJCbGx5fsAn-1" source="_9WxbNHID54HXvTMNS11-0">
          <mxGeometry width="50" height="50" relative="1" as="geometry">
            <mxPoint x="720" y="300" as="sourcePoint" />
            <mxPoint x="770" y="250" as="targetPoint" />
          </mxGeometry>
        </mxCell>
        <mxCell id="J_HP3mN86eS4cHaUZO_1-1" value="" style="endArrow=none;html=1;exitX=0.814;exitY=0.022;exitDx=0;exitDy=0;exitPerimeter=0;" edge="1" parent="JO9bQrJqRlJCbGx5fsAn-1">
          <mxGeometry width="50" height="50" relative="1" as="geometry">
            <mxPoint x="700.7200000000003" y="190.00000000000006" as="sourcePoint" />
            <mxPoint x="700" y="248.6799999999999" as="targetPoint" />
          </mxGeometry>
        </mxCell>
        <mxCell id="J_HP3mN86eS4cHaUZO_1-3" value="" style="endArrow=none;html=1;exitX=0.814;exitY=0.022;exitDx=0;exitDy=0;exitPerimeter=0;" edge="1" parent="JO9bQrJqRlJCbGx5fsAn-1">
          <mxGeometry width="50" height="50" relative="1" as="geometry">
            <mxPoint x="610.72" y="190" as="sourcePoint" />
            <mxPoint x="610" y="248.67999999999984" as="targetPoint" />
          </mxGeometry>
        </mxCell>
        <mxCell id="J_HP3mN86eS4cHaUZO_1-4" value="" style="endArrow=none;html=1;exitX=0.814;exitY=0.022;exitDx=0;exitDy=0;exitPerimeter=0;" edge="1" parent="JO9bQrJqRlJCbGx5fsAn-1">
          <mxGeometry width="50" height="50" relative="1" as="geometry">
            <mxPoint x="500.72" y="191.32" as="sourcePoint" />
            <mxPoint x="500" y="249.99999999999983" as="targetPoint" />
          </mxGeometry>
        </mxCell>
        <mxCell id="J_HP3mN86eS4cHaUZO_1-5" value="" style="rounded=1;whiteSpace=wrap;html=1;strokeColor=#000000;fillColor=#FFFFFF;" vertex="1" parent="JO9bQrJqRlJCbGx5fsAn-1">
          <mxGeometry x="70" y="290" width="320" height="440" as="geometry" />
        </mxCell>
        <mxCell id="J_HP3mN86eS4cHaUZO_1-6" value="" style="rounded=1;whiteSpace=wrap;html=1;strokeColor=#000000;fillColor=#FFFFFF;" vertex="1" parent="JO9bQrJqRlJCbGx5fsAn-1">
          <mxGeometry x="410" y="290" width="320" height="440" as="geometry" />
        </mxCell>
        <mxCell id="J_HP3mN86eS4cHaUZO_1-7" value="" style="rounded=1;whiteSpace=wrap;html=1;strokeColor=#000000;fillColor=#FFFFFF;" vertex="1" parent="JO9bQrJqRlJCbGx5fsAn-1">
          <mxGeometry x="750" y="290" width="320" height="440" as="geometry" />
        </mxCell>
        <mxCell id="J_HP3mN86eS4cHaUZO_1-8" value="" style="rounded=0;whiteSpace=wrap;html=1;strokeColor=#000000;fillColor=#FFFFFF;" vertex="1" parent="JO9bQrJqRlJCbGx5fsAn-1">
          <mxGeometry x="1100" y="80" width="20" height="720" as="geometry" />
        </mxCell>
        <mxCell id="J_HP3mN86eS4cHaUZO_1-9" value="" style="rounded=1;whiteSpace=wrap;html=1;strokeColor=#000000;fillColor=#FFFFFF;" vertex="1" parent="JO9bQrJqRlJCbGx5fsAn-1">
          <mxGeometry x="1100" y="190" width="20" height="260" as="geometry" />
        </mxCell>
        <mxCell id="J_HP3mN86eS4cHaUZO_1-12" value="" style="rounded=0;whiteSpace=wrap;html=1;strokeColor=#000000;fillColor=#FFFFFF;" vertex="1" parent="JO9bQrJqRlJCbGx5fsAn-1">
          <mxGeometry x="70" y="330" width="100" height="60" as="geometry" />
        </mxCell>
        <mxCell id="J_HP3mN86eS4cHaUZO_1-13" value="" style="rounded=0;whiteSpace=wrap;html=1;strokeColor=#000000;fillColor=#FFFFFF;" vertex="1" parent="JO9bQrJqRlJCbGx5fsAn-1">
          <mxGeometry x="170" y="330" width="130" height="60" as="geometry" />
        </mxCell>
        <mxCell id="J_HP3mN86eS4cHaUZO_1-14" value="" style="rounded=0;whiteSpace=wrap;html=1;strokeColor=#000000;fillColor=#FFFFFF;" vertex="1" parent="JO9bQrJqRlJCbGx5fsAn-1">
          <mxGeometry x="300" y="330" width="90" height="60" as="geometry" />
        </mxCell>
        <mxCell id="J_HP3mN86eS4cHaUZO_1-16" value="" style="rounded=0;whiteSpace=wrap;html=1;strokeColor=#000000;fillColor=#FFFFFF;" vertex="1" parent="JO9bQrJqRlJCbGx5fsAn-1">
          <mxGeometry x="70" y="390" width="320" height="60" as="geometry" />
        </mxCell>
        <mxCell id="J_HP3mN86eS4cHaUZO_1-17" value="- skldfklsdfk dfg dfgdfgdfg dfgdfgdfg&amp;nbsp;" style="text;html=1;strokeColor=none;fillColor=none;align=center;verticalAlign=middle;whiteSpace=wrap;rounded=0;" vertex="1" parent="JO9bQrJqRlJCbGx5fsAn-1">
          <mxGeometry x="95" y="410" width="225" height="20" as="geometry" />
        </mxCell>
        <mxCell id="J_HP3mN86eS4cHaUZO_1-18" value="" style="rounded=0;whiteSpace=wrap;html=1;strokeColor=#000000;fillColor=#FFFFFF;" vertex="1" parent="JO9bQrJqRlJCbGx5fsAn-1">
          <mxGeometry x="70" y="450" width="320" height="60" as="geometry" />
        </mxCell>
        <mxCell id="J_HP3mN86eS4cHaUZO_1-19" value="- skldfklsdfk dfg dfgdfgdfg dfgdfgdfg&amp;nbsp;" style="text;html=1;strokeColor=none;fillColor=none;align=center;verticalAlign=middle;whiteSpace=wrap;rounded=0;" vertex="1" parent="JO9bQrJqRlJCbGx5fsAn-1">
          <mxGeometry x="95" y="470" width="225" height="20" as="geometry" />
        </mxCell>
        <mxCell id="J_HP3mN86eS4cHaUZO_1-20" value="" style="rounded=0;whiteSpace=wrap;html=1;strokeColor=#000000;fillColor=#FFFFFF;" vertex="1" parent="JO9bQrJqRlJCbGx5fsAn-1">
          <mxGeometry x="70" y="510" width="320" height="60" as="geometry" />
        </mxCell>
        <mxCell id="J_HP3mN86eS4cHaUZO_1-21" value="- skldfklsdfk dfg dfgdfgdfg dfgdfgdfg&amp;nbsp;" style="text;html=1;strokeColor=none;fillColor=none;align=center;verticalAlign=middle;whiteSpace=wrap;rounded=0;" vertex="1" parent="JO9bQrJqRlJCbGx5fsAn-1">
          <mxGeometry x="95" y="530" width="225" height="20" as="geometry" />
        </mxCell>
        <mxCell id="J_HP3mN86eS4cHaUZO_1-22" value="" style="rounded=0;whiteSpace=wrap;html=1;strokeColor=#000000;fillColor=#FFFFFF;" vertex="1" parent="JO9bQrJqRlJCbGx5fsAn-1">
          <mxGeometry x="70" y="570" width="320" height="60" as="geometry" />
        </mxCell>
        <mxCell id="J_HP3mN86eS4cHaUZO_1-23" value="- skldfklsdfk dfg dfgdfgdfg dfgdfgdfg&amp;nbsp;" style="text;html=1;strokeColor=none;fillColor=none;align=center;verticalAlign=middle;whiteSpace=wrap;rounded=0;" vertex="1" parent="JO9bQrJqRlJCbGx5fsAn-1">
          <mxGeometry x="95" y="590" width="225" height="20" as="geometry" />
        </mxCell>
        <mxCell id="J_HP3mN86eS4cHaUZO_1-24" value="" style="rounded=0;whiteSpace=wrap;html=1;strokeColor=#000000;fillColor=#FFFFFF;" vertex="1" parent="JO9bQrJqRlJCbGx5fsAn-1">
          <mxGeometry x="70" y="630" width="320" height="60" as="geometry" />
        </mxCell>
        <mxCell id="J_HP3mN86eS4cHaUZO_1-25" value="- skldfklsdfk dfg dfgdfgdfg dfgdfgdfg&amp;nbsp;" style="text;html=1;strokeColor=none;fillColor=none;align=center;verticalAlign=middle;whiteSpace=wrap;rounded=0;" vertex="1" parent="JO9bQrJqRlJCbGx5fsAn-1">
          <mxGeometry x="95" y="640" width="225" height="20" as="geometry" />
        </mxCell>
        <mxCell id="J_HP3mN86eS4cHaUZO_1-26" value="" style="rounded=1;whiteSpace=wrap;html=1;strokeColor=#000000;fillColor=#FFFFFF;" vertex="1" parent="JO9bQrJqRlJCbGx5fsAn-1">
          <mxGeometry x="410" y="290" width="320" height="440" as="geometry" />
        </mxCell>
        <mxCell id="J_HP3mN86eS4cHaUZO_1-27" value="" style="rounded=0;whiteSpace=wrap;html=1;strokeColor=#000000;fillColor=#FFFFFF;" vertex="1" parent="JO9bQrJqRlJCbGx5fsAn-1">
          <mxGeometry x="410" y="330" width="160" height="60" as="geometry" />
        </mxCell>
        <mxCell id="J_HP3mN86eS4cHaUZO_1-29" value="" style="rounded=0;whiteSpace=wrap;html=1;strokeColor=#000000;fillColor=#FFFFFF;" vertex="1" parent="JO9bQrJqRlJCbGx5fsAn-1">
          <mxGeometry x="570" y="330" width="160" height="60" as="geometry" />
        </mxCell>
        <mxCell id="J_HP3mN86eS4cHaUZO_1-30" value="" style="rounded=0;whiteSpace=wrap;html=1;strokeColor=#000000;fillColor=#FFFFFF;" vertex="1" parent="JO9bQrJqRlJCbGx5fsAn-1">
          <mxGeometry x="410" y="390" width="320" height="60" as="geometry" />
        </mxCell>
        <mxCell id="J_HP3mN86eS4cHaUZO_1-31" value="- skldfklsdfk dfg dfgdfgdfg dfgdfgdfg&amp;nbsp;" style="text;html=1;strokeColor=none;fillColor=none;align=center;verticalAlign=middle;whiteSpace=wrap;rounded=0;" vertex="1" parent="JO9bQrJqRlJCbGx5fsAn-1">
          <mxGeometry x="435" y="410" width="225" height="20" as="geometry" />
        </mxCell>
        <mxCell id="J_HP3mN86eS4cHaUZO_1-32" value="" style="rounded=0;whiteSpace=wrap;html=1;strokeColor=#000000;fillColor=#FFFFFF;" vertex="1" parent="JO9bQrJqRlJCbGx5fsAn-1">
          <mxGeometry x="410" y="450" width="320" height="60" as="geometry" />
        </mxCell>
        <mxCell id="J_HP3mN86eS4cHaUZO_1-33" value="- skldfklsdfk dfg dfgdfgdfg dfgdfgdfg&amp;nbsp;" style="text;html=1;strokeColor=none;fillColor=none;align=center;verticalAlign=middle;whiteSpace=wrap;rounded=0;" vertex="1" parent="JO9bQrJqRlJCbGx5fsAn-1">
          <mxGeometry x="435" y="470" width="225" height="20" as="geometry" />
        </mxCell>
        <mxCell id="J_HP3mN86eS4cHaUZO_1-34" value="" style="rounded=0;whiteSpace=wrap;html=1;strokeColor=#000000;fillColor=#FFFFFF;" vertex="1" parent="JO9bQrJqRlJCbGx5fsAn-1">
          <mxGeometry x="410" y="510" width="320" height="60" as="geometry" />
        </mxCell>
        <mxCell id="J_HP3mN86eS4cHaUZO_1-35" value="- skldfklsdfk dfg dfgdfgdfg dfgdfgdfg&amp;nbsp;" style="text;html=1;strokeColor=none;fillColor=none;align=center;verticalAlign=middle;whiteSpace=wrap;rounded=0;" vertex="1" parent="JO9bQrJqRlJCbGx5fsAn-1">
          <mxGeometry x="435" y="530" width="225" height="20" as="geometry" />
        </mxCell>
        <mxCell id="J_HP3mN86eS4cHaUZO_1-36" value="" style="rounded=0;whiteSpace=wrap;html=1;strokeColor=#000000;fillColor=#FFFFFF;" vertex="1" parent="JO9bQrJqRlJCbGx5fsAn-1">
          <mxGeometry x="410" y="570" width="320" height="60" as="geometry" />
        </mxCell>
        <mxCell id="J_HP3mN86eS4cHaUZO_1-37" value="- skldfklsdfk dfg dfgdfgdfg dfgdfgdfg&amp;nbsp;" style="text;html=1;strokeColor=none;fillColor=none;align=center;verticalAlign=middle;whiteSpace=wrap;rounded=0;" vertex="1" parent="JO9bQrJqRlJCbGx5fsAn-1">
          <mxGeometry x="435" y="590" width="225" height="20" as="geometry" />
        </mxCell>
        <mxCell id="J_HP3mN86eS4cHaUZO_1-38" value="" style="rounded=0;whiteSpace=wrap;html=1;strokeColor=#000000;fillColor=#FFFFFF;" vertex="1" parent="JO9bQrJqRlJCbGx5fsAn-1">
          <mxGeometry x="410" y="630" width="320" height="60" as="geometry" />
        </mxCell>
        <mxCell id="J_HP3mN86eS4cHaUZO_1-39" value="- skldfklsdfk dfg dfgdfgdfg dfgdfgdfg&amp;nbsp;" style="text;html=1;strokeColor=none;fillColor=none;align=center;verticalAlign=middle;whiteSpace=wrap;rounded=0;" vertex="1" parent="JO9bQrJqRlJCbGx5fsAn-1">
          <mxGeometry x="435" y="640" width="225" height="20" as="geometry" />
        </mxCell>
        <mxCell id="J_HP3mN86eS4cHaUZO_1-40" value="" style="rounded=1;whiteSpace=wrap;html=1;strokeColor=#000000;fillColor=#FFFFFF;" vertex="1" parent="JO9bQrJqRlJCbGx5fsAn-1">
          <mxGeometry x="750" y="290" width="320" height="440" as="geometry" />
        </mxCell>
        <mxCell id="J_HP3mN86eS4cHaUZO_1-41" value="" style="rounded=0;whiteSpace=wrap;html=1;strokeColor=#000000;fillColor=#FFFFFF;" vertex="1" parent="JO9bQrJqRlJCbGx5fsAn-1">
          <mxGeometry x="750" y="330" width="170" height="60" as="geometry" />
        </mxCell>
        <mxCell id="J_HP3mN86eS4cHaUZO_1-43" value="" style="rounded=0;whiteSpace=wrap;html=1;strokeColor=#000000;fillColor=#FFFFFF;" vertex="1" parent="JO9bQrJqRlJCbGx5fsAn-1">
          <mxGeometry x="920" y="330" width="150" height="60" as="geometry" />
        </mxCell>
        <mxCell id="J_HP3mN86eS4cHaUZO_1-44" value="" style="rounded=0;whiteSpace=wrap;html=1;strokeColor=#000000;fillColor=#FFFFFF;" vertex="1" parent="JO9bQrJqRlJCbGx5fsAn-1">
          <mxGeometry x="750" y="390" width="320" height="60" as="geometry" />
        </mxCell>
        <mxCell id="J_HP3mN86eS4cHaUZO_1-45" value="- skldfklsdfk dfg dfgdfgdfg dfgdfgdfg&amp;nbsp;" style="text;html=1;strokeColor=none;fillColor=none;align=center;verticalAlign=middle;whiteSpace=wrap;rounded=0;" vertex="1" parent="JO9bQrJqRlJCbGx5fsAn-1">
          <mxGeometry x="775" y="410" width="225" height="20" as="geometry" />
        </mxCell>
        <mxCell id="J_HP3mN86eS4cHaUZO_1-46" value="" style="rounded=0;whiteSpace=wrap;html=1;strokeColor=#000000;fillColor=#FFFFFF;" vertex="1" parent="JO9bQrJqRlJCbGx5fsAn-1">
          <mxGeometry x="750" y="450" width="320" height="60" as="geometry" />
        </mxCell>
        <mxCell id="J_HP3mN86eS4cHaUZO_1-47" value="- skldfklsdfk dfg dfgdfgdfg dfgdfgdfg&amp;nbsp;" style="text;html=1;strokeColor=none;fillColor=none;align=center;verticalAlign=middle;whiteSpace=wrap;rounded=0;" vertex="1" parent="JO9bQrJqRlJCbGx5fsAn-1">
          <mxGeometry x="775" y="470" width="225" height="20" as="geometry" />
        </mxCell>
        <mxCell id="J_HP3mN86eS4cHaUZO_1-48" value="" style="rounded=0;whiteSpace=wrap;html=1;strokeColor=#000000;fillColor=#FFFFFF;" vertex="1" parent="JO9bQrJqRlJCbGx5fsAn-1">
          <mxGeometry x="750" y="510" width="320" height="60" as="geometry" />
        </mxCell>
        <mxCell id="J_HP3mN86eS4cHaUZO_1-49" value="- skldfklsdfk dfg dfgdfgdfg dfgdfgdfg&amp;nbsp;" style="text;html=1;strokeColor=none;fillColor=none;align=center;verticalAlign=middle;whiteSpace=wrap;rounded=0;" vertex="1" parent="JO9bQrJqRlJCbGx5fsAn-1">
          <mxGeometry x="775" y="530" width="225" height="20" as="geometry" />
        </mxCell>
        <mxCell id="J_HP3mN86eS4cHaUZO_1-50" value="" style="rounded=0;whiteSpace=wrap;html=1;strokeColor=#000000;fillColor=#FFFFFF;" vertex="1" parent="JO9bQrJqRlJCbGx5fsAn-1">
          <mxGeometry x="750" y="570" width="320" height="60" as="geometry" />
        </mxCell>
        <mxCell id="J_HP3mN86eS4cHaUZO_1-51" value="- skldfklsdfk dfg dfgdfgdfg dfgdfgdfg&amp;nbsp;" style="text;html=1;strokeColor=none;fillColor=none;align=center;verticalAlign=middle;whiteSpace=wrap;rounded=0;" vertex="1" parent="JO9bQrJqRlJCbGx5fsAn-1">
          <mxGeometry x="775" y="590" width="225" height="20" as="geometry" />
        </mxCell>
        <mxCell id="J_HP3mN86eS4cHaUZO_1-52" value="" style="rounded=0;whiteSpace=wrap;html=1;strokeColor=#000000;fillColor=#FFFFFF;" vertex="1" parent="JO9bQrJqRlJCbGx5fsAn-1">
          <mxGeometry x="750" y="630" width="320" height="60" as="geometry" />
        </mxCell>
        <mxCell id="J_HP3mN86eS4cHaUZO_1-53" value="- skldfklsdfk dfg dfgdfgdfg dfgdfgdfg&amp;nbsp;" style="text;html=1;strokeColor=none;fillColor=none;align=center;verticalAlign=middle;whiteSpace=wrap;rounded=0;" vertex="1" parent="JO9bQrJqRlJCbGx5fsAn-1">
          <mxGeometry x="775" y="640" width="225" height="20" as="geometry" />
        </mxCell>
        <mxCell id="J_HP3mN86eS4cHaUZO_1-54" value="Tips &amp;amp; tanker" style="text;html=1;strokeColor=none;fillColor=none;align=center;verticalAlign=middle;whiteSpace=wrap;rounded=0;" vertex="1" parent="JO9bQrJqRlJCbGx5fsAn-1">
          <mxGeometry x="130" y="300" width="200" height="20" as="geometry" />
        </mxCell>
        <mxCell id="J_HP3mN86eS4cHaUZO_1-55" value="Tips &amp;amp; tanker" style="text;html=1;strokeColor=none;fillColor=none;align=center;verticalAlign=middle;whiteSpace=wrap;rounded=0;" vertex="1" parent="JO9bQrJqRlJCbGx5fsAn-1">
          <mxGeometry x="480" y="300" width="200" height="20" as="geometry" />
        </mxCell>
        <mxCell id="J_HP3mN86eS4cHaUZO_1-56" value="Tips &amp;amp; tanker" style="text;html=1;strokeColor=none;fillColor=none;align=center;verticalAlign=middle;whiteSpace=wrap;rounded=0;" vertex="1" parent="JO9bQrJqRlJCbGx5fsAn-1">
          <mxGeometry x="830" y="300" width="200" height="20" as="geometry" />
        </mxCell>
        <mxCell id="J_HP3mN86eS4cHaUZO_1-57" value="" style="rounded=1;whiteSpace=wrap;html=1;strokeColor=#000000;fillColor=#FFFFFF;" vertex="1" parent="JO9bQrJqRlJCbGx5fsAn-1">
          <mxGeometry x="330" y="400" width="50" height="40" as="geometry" />
        </mxCell>
        <mxCell id="J_HP3mN86eS4cHaUZO_1-58" value="" style="rounded=1;whiteSpace=wrap;html=1;strokeColor=#000000;fillColor=#FFFFFF;" vertex="1" parent="JO9bQrJqRlJCbGx5fsAn-1">
          <mxGeometry x="330" y="460" width="50" height="40" as="geometry" />
        </mxCell>
        <mxCell id="J_HP3mN86eS4cHaUZO_1-59" value="" style="rounded=1;whiteSpace=wrap;html=1;strokeColor=#000000;fillColor=#FFFFFF;" vertex="1" parent="JO9bQrJqRlJCbGx5fsAn-1">
          <mxGeometry x="330" y="520" width="50" height="40" as="geometry" />
        </mxCell>
        <mxCell id="J_HP3mN86eS4cHaUZO_1-60" value="" style="rounded=1;whiteSpace=wrap;html=1;strokeColor=#000000;fillColor=#FFFFFF;" vertex="1" parent="JO9bQrJqRlJCbGx5fsAn-1">
          <mxGeometry x="330" y="580" width="50" height="40" as="geometry" />
        </mxCell>
        <mxCell id="J_HP3mN86eS4cHaUZO_1-61" value="" style="rounded=1;whiteSpace=wrap;html=1;strokeColor=#000000;fillColor=#FFFFFF;" vertex="1" parent="JO9bQrJqRlJCbGx5fsAn-1">
          <mxGeometry x="330" y="640" width="50" height="40" as="geometry" />
        </mxCell>
        <mxCell id="J_HP3mN86eS4cHaUZO_1-62" value="" style="rounded=1;whiteSpace=wrap;html=1;strokeColor=#000000;fillColor=#FFFFFF;" vertex="1" parent="JO9bQrJqRlJCbGx5fsAn-1">
          <mxGeometry x="670" y="400" width="50" height="40" as="geometry" />
        </mxCell>
        <mxCell id="J_HP3mN86eS4cHaUZO_1-63" value="" style="rounded=1;whiteSpace=wrap;html=1;strokeColor=#000000;fillColor=#FFFFFF;" vertex="1" parent="JO9bQrJqRlJCbGx5fsAn-1">
          <mxGeometry x="670" y="460" width="50" height="40" as="geometry" />
        </mxCell>
        <mxCell id="J_HP3mN86eS4cHaUZO_1-64" value="" style="rounded=1;whiteSpace=wrap;html=1;strokeColor=#000000;fillColor=#FFFFFF;" vertex="1" parent="JO9bQrJqRlJCbGx5fsAn-1">
          <mxGeometry x="670" y="520" width="50" height="40" as="geometry" />
        </mxCell>
        <mxCell id="J_HP3mN86eS4cHaUZO_1-65" value="" style="rounded=1;whiteSpace=wrap;html=1;strokeColor=#000000;fillColor=#FFFFFF;" vertex="1" parent="JO9bQrJqRlJCbGx5fsAn-1">
          <mxGeometry x="670" y="580" width="50" height="40" as="geometry" />
        </mxCell>
        <mxCell id="J_HP3mN86eS4cHaUZO_1-66" value="" style="rounded=1;whiteSpace=wrap;html=1;strokeColor=#000000;fillColor=#FFFFFF;" vertex="1" parent="JO9bQrJqRlJCbGx5fsAn-1">
          <mxGeometry x="670" y="640" width="50" height="40" as="geometry" />
        </mxCell>
        <mxCell id="J_HP3mN86eS4cHaUZO_1-67" value="" style="rounded=1;whiteSpace=wrap;html=1;strokeColor=#000000;fillColor=#FFFFFF;" vertex="1" parent="JO9bQrJqRlJCbGx5fsAn-1">
          <mxGeometry x="1010" y="400" width="50" height="40" as="geometry" />
        </mxCell>
        <mxCell id="J_HP3mN86eS4cHaUZO_1-68" value="" style="rounded=1;whiteSpace=wrap;html=1;strokeColor=#000000;fillColor=#FFFFFF;" vertex="1" parent="JO9bQrJqRlJCbGx5fsAn-1">
          <mxGeometry x="1010" y="460" width="50" height="40" as="geometry" />
        </mxCell>
        <mxCell id="J_HP3mN86eS4cHaUZO_1-69" value="" style="rounded=1;whiteSpace=wrap;html=1;strokeColor=#000000;fillColor=#FFFFFF;" vertex="1" parent="JO9bQrJqRlJCbGx5fsAn-1">
          <mxGeometry x="1010" y="520" width="50" height="40" as="geometry" />
        </mxCell>
        <mxCell id="J_HP3mN86eS4cHaUZO_1-70" value="" style="rounded=1;whiteSpace=wrap;html=1;strokeColor=#000000;fillColor=#FFFFFF;" vertex="1" parent="JO9bQrJqRlJCbGx5fsAn-1">
          <mxGeometry x="1010" y="580" width="50" height="40" as="geometry" />
        </mxCell>
        <mxCell id="J_HP3mN86eS4cHaUZO_1-71" value="" style="rounded=1;whiteSpace=wrap;html=1;strokeColor=#000000;fillColor=#FFFFFF;" vertex="1" parent="JO9bQrJqRlJCbGx5fsAn-1">
          <mxGeometry x="1010" y="640" width="50" height="40" as="geometry" />
        </mxCell>
        <mxCell id="BEYGzbAvMZVVi4qNSaFN-2" value="" style="shape=card;whiteSpace=wrap;html=1;strokeColor=#000000;fillColor=none;rotation=0;size=60;" vertex="1" parent="JO9bQrJqRlJCbGx5fsAn-1">
          <mxGeometry x="550" y="750" width="550" height="50" as="geometry" />
        </mxCell>
        <mxCell id="BEYGzbAvMZVVi4qNSaFN-3" value="" style="endArrow=none;html=1;" edge="1" parent="JO9bQrJqRlJCbGx5fsAn-1">
          <mxGeometry width="50" height="50" relative="1" as="geometry">
            <mxPoint x="630" y="800" as="sourcePoint" />
            <mxPoint x="680" y="750" as="targetPoint" />
          </mxGeometry>
        </mxCell>
        <mxCell id="BEYGzbAvMZVVi4qNSaFN-4" value="" style="endArrow=none;html=1;" edge="1" parent="JO9bQrJqRlJCbGx5fsAn-1">
          <mxGeometry width="50" height="50" relative="1" as="geometry">
            <mxPoint x="760" y="800" as="sourcePoint" />
            <mxPoint x="810" y="750" as="targetPoint" />
          </mxGeometry>
        </mxCell>
        <mxCell id="BEYGzbAvMZVVi4qNSaFN-5" value="" style="endArrow=none;html=1;" edge="1" parent="JO9bQrJqRlJCbGx5fsAn-1">
          <mxGeometry width="50" height="50" relative="1" as="geometry">
            <mxPoint x="885" y="800" as="sourcePoint" />
            <mxPoint x="935" y="750" as="targetPoint" />
          </mxGeometry>
        </mxCell>
        <mxCell id="BEYGzbAvMZVVi4qNSaFN-6" value="" style="endArrow=none;html=1;" edge="1" parent="JO9bQrJqRlJCbGx5fsAn-1">
          <mxGeometry width="50" height="50" relative="1" as="geometry">
            <mxPoint x="990" y="800" as="sourcePoint" />
            <mxPoint x="1040" y="750" as="targetPoint" />
          </mxGeometry>
        </mxCell>
        <mxCell id="jOzzbVkQjld4nUxoKQL7-0" value="" style="verticalLabelPosition=bottom;verticalAlign=top;html=1;shape=mxgraph.basic.tick;strokeColor=#000000;fillColor=#E6E6E6;" vertex="1" parent="JO9bQrJqRlJCbGx5fsAn-1">
          <mxGeometry x="332.5" y="405" width="45" height="30" as="geometry" />
        </mxCell>
      </root>
    </mxGraphModel>
  </diagram>
  <diagram id="TMYuP-gSJElCuRI4cJBh" name="Page-3">
    <mxGraphModel dx="1783" dy="1009" grid="1" gridSize="10" guides="1" tooltips="1" connect="1" arrows="1" fold="1" page="1" pageScale="1" pageWidth="1169" pageHeight="827" math="0" shadow="0">
      <root>
        <mxCell id="oFfzEaIJzjR-xGKn51mv-0" />
        <mxCell id="oFfzEaIJzjR-xGKn51mv-1" parent="oFfzEaIJzjR-xGKn51mv-0" />
        <mxCell id="l22yweQC2O0AIqLFnT07-0" value="" style="rounded=0;whiteSpace=wrap;html=1;strokeColor=#000000;fillColor=#FFFFFF;" vertex="1" parent="oFfzEaIJzjR-xGKn51mv-1">
          <mxGeometry x="40" y="40" width="1080" height="760" as="geometry" />
        </mxCell>
        <mxCell id="l22yweQC2O0AIqLFnT07-1" value="" style="rounded=0;whiteSpace=wrap;html=1;strokeColor=#000000;fillColor=none;" vertex="1" parent="oFfzEaIJzjR-xGKn51mv-1">
          <mxGeometry x="40" y="60" width="1080" height="20" as="geometry" />
        </mxCell>
        <mxCell id="l22yweQC2O0AIqLFnT07-2" value="" style="rounded=1;whiteSpace=wrap;html=1;strokeColor=#000000;fillColor=none;" vertex="1" parent="oFfzEaIJzjR-xGKn51mv-1">
          <mxGeometry x="130" y="60" width="940" height="20" as="geometry" />
        </mxCell>
        <mxCell id="l22yweQC2O0AIqLFnT07-3" value="" style="rounded=0;whiteSpace=wrap;html=1;strokeColor=#000000;fillColor=none;" vertex="1" parent="oFfzEaIJzjR-xGKn51mv-1">
          <mxGeometry x="40" y="40" width="1080" height="20" as="geometry" />
        </mxCell>
        <mxCell id="l22yweQC2O0AIqLFnT07-4" value="" style="rounded=1;whiteSpace=wrap;html=1;strokeColor=#000000;fillColor=none;" vertex="1" parent="oFfzEaIJzjR-xGKn51mv-1">
          <mxGeometry x="40" y="40" width="150" height="20" as="geometry" />
        </mxCell>
        <mxCell id="l22yweQC2O0AIqLFnT07-5" value="" style="rounded=1;whiteSpace=wrap;html=1;strokeColor=#000000;fillColor=none;" vertex="1" parent="oFfzEaIJzjR-xGKn51mv-1">
          <mxGeometry x="190" y="40" width="150" height="20" as="geometry" />
        </mxCell>
        <mxCell id="l22yweQC2O0AIqLFnT07-6" value="x" style="text;html=1;strokeColor=none;fillColor=none;align=center;verticalAlign=middle;whiteSpace=wrap;rounded=0;" vertex="1" parent="oFfzEaIJzjR-xGKn51mv-1">
          <mxGeometry x="150" y="40" width="40" height="20" as="geometry" />
        </mxCell>
        <mxCell id="l22yweQC2O0AIqLFnT07-7" value="x" style="text;html=1;strokeColor=none;fillColor=none;align=center;verticalAlign=middle;whiteSpace=wrap;rounded=0;" vertex="1" parent="oFfzEaIJzjR-xGKn51mv-1">
          <mxGeometry x="300" y="40" width="40" height="20" as="geometry" />
        </mxCell>
        <mxCell id="l22yweQC2O0AIqLFnT07-8" value="" style="endArrow=classic;html=1;" edge="1" parent="oFfzEaIJzjR-xGKn51mv-1">
          <mxGeometry width="50" height="50" relative="1" as="geometry">
            <mxPoint x="60" y="70" as="sourcePoint" />
            <mxPoint x="40" y="69.75999999999999" as="targetPoint" />
          </mxGeometry>
        </mxCell>
        <mxCell id="l22yweQC2O0AIqLFnT07-9" value="" style="endArrow=classic;html=1;entryX=0.056;entryY=0.065;entryDx=0;entryDy=0;entryPerimeter=0;" edge="1" parent="oFfzEaIJzjR-xGKn51mv-1">
          <mxGeometry width="50" height="50" relative="1" as="geometry">
            <mxPoint x="69.51999999999998" y="70.29999999999995" as="sourcePoint" />
            <mxPoint x="90" y="69.69999999999993" as="targetPoint" />
          </mxGeometry>
        </mxCell>
        <mxCell id="l22yweQC2O0AIqLFnT07-10" value="" style="shape=mxgraph.bpmn.loop;html=1;outlineConnect=0;strokeColor=#000000;fillColor=none;" vertex="1" parent="oFfzEaIJzjR-xGKn51mv-1">
          <mxGeometry x="100" y="63" width="14" height="14" as="geometry" />
        </mxCell>
        <mxCell id="l22yweQC2O0AIqLFnT07-11" value="&lt;font style=&quot;font-size: 48px&quot;&gt;ZBC&lt;/font&gt;" style="rounded=1;whiteSpace=wrap;html=1;" vertex="1" parent="oFfzEaIJzjR-xGKn51mv-1">
          <mxGeometry x="90" y="140" width="200" height="65" as="geometry" />
        </mxCell>
        <mxCell id="l22yweQC2O0AIqLFnT07-12" value="" style="rounded=1;whiteSpace=wrap;html=1;strokeColor=#000000;fillColor=#FFFFFF;" vertex="1" parent="oFfzEaIJzjR-xGKn51mv-1">
          <mxGeometry x="380" y="190" width="480" height="60" as="geometry" />
        </mxCell>
        <mxCell id="l22yweQC2O0AIqLFnT07-13" value="" style="endArrow=none;html=1;exitX=0.814;exitY=0.022;exitDx=0;exitDy=0;exitPerimeter=0;" edge="1" parent="oFfzEaIJzjR-xGKn51mv-1" source="l22yweQC2O0AIqLFnT07-12">
          <mxGeometry width="50" height="50" relative="1" as="geometry">
            <mxPoint x="720" y="300" as="sourcePoint" />
            <mxPoint x="770" y="250" as="targetPoint" />
          </mxGeometry>
        </mxCell>
        <mxCell id="l22yweQC2O0AIqLFnT07-14" value="" style="endArrow=none;html=1;exitX=0.814;exitY=0.022;exitDx=0;exitDy=0;exitPerimeter=0;" edge="1" parent="oFfzEaIJzjR-xGKn51mv-1">
          <mxGeometry width="50" height="50" relative="1" as="geometry">
            <mxPoint x="700.7200000000003" y="190" as="sourcePoint" />
            <mxPoint x="700" y="248.67999999999984" as="targetPoint" />
          </mxGeometry>
        </mxCell>
        <mxCell id="l22yweQC2O0AIqLFnT07-15" value="" style="endArrow=none;html=1;exitX=0.814;exitY=0.022;exitDx=0;exitDy=0;exitPerimeter=0;" edge="1" parent="oFfzEaIJzjR-xGKn51mv-1">
          <mxGeometry width="50" height="50" relative="1" as="geometry">
            <mxPoint x="610.72" y="190" as="sourcePoint" />
            <mxPoint x="610" y="248.67999999999984" as="targetPoint" />
          </mxGeometry>
        </mxCell>
        <mxCell id="l22yweQC2O0AIqLFnT07-16" value="" style="endArrow=none;html=1;exitX=0.814;exitY=0.022;exitDx=0;exitDy=0;exitPerimeter=0;" edge="1" parent="oFfzEaIJzjR-xGKn51mv-1">
          <mxGeometry width="50" height="50" relative="1" as="geometry">
            <mxPoint x="500.72" y="191.31999999999994" as="sourcePoint" />
            <mxPoint x="500" y="249.99999999999977" as="targetPoint" />
          </mxGeometry>
        </mxCell>
        <mxCell id="l22yweQC2O0AIqLFnT07-17" value="" style="rounded=1;whiteSpace=wrap;html=1;strokeColor=#000000;fillColor=#FFFFFF;" vertex="1" parent="oFfzEaIJzjR-xGKn51mv-1">
          <mxGeometry x="70" y="290" width="320" height="440" as="geometry" />
        </mxCell>
        <mxCell id="l22yweQC2O0AIqLFnT07-18" value="" style="rounded=1;whiteSpace=wrap;html=1;strokeColor=#000000;fillColor=#FFFFFF;" vertex="1" parent="oFfzEaIJzjR-xGKn51mv-1">
          <mxGeometry x="410" y="290" width="320" height="440" as="geometry" />
        </mxCell>
        <mxCell id="l22yweQC2O0AIqLFnT07-19" value="" style="rounded=1;whiteSpace=wrap;html=1;strokeColor=#000000;fillColor=#FFFFFF;" vertex="1" parent="oFfzEaIJzjR-xGKn51mv-1">
          <mxGeometry x="750" y="290" width="320" height="440" as="geometry" />
        </mxCell>
        <mxCell id="l22yweQC2O0AIqLFnT07-20" value="" style="rounded=0;whiteSpace=wrap;html=1;strokeColor=#000000;fillColor=#FFFFFF;" vertex="1" parent="oFfzEaIJzjR-xGKn51mv-1">
          <mxGeometry x="1100" y="80" width="20" height="720" as="geometry" />
        </mxCell>
        <mxCell id="l22yweQC2O0AIqLFnT07-21" value="" style="rounded=1;whiteSpace=wrap;html=1;strokeColor=#000000;fillColor=#FFFFFF;" vertex="1" parent="oFfzEaIJzjR-xGKn51mv-1">
          <mxGeometry x="1100" y="190" width="20" height="260" as="geometry" />
        </mxCell>
        <mxCell id="l22yweQC2O0AIqLFnT07-22" value="" style="rounded=0;whiteSpace=wrap;html=1;strokeColor=#000000;fillColor=#FFFFFF;" vertex="1" parent="oFfzEaIJzjR-xGKn51mv-1">
          <mxGeometry x="70" y="330" width="100" height="60" as="geometry" />
        </mxCell>
        <mxCell id="l22yweQC2O0AIqLFnT07-23" value="" style="rounded=0;whiteSpace=wrap;html=1;strokeColor=#000000;fillColor=#FFFFFF;" vertex="1" parent="oFfzEaIJzjR-xGKn51mv-1">
          <mxGeometry x="170" y="330" width="130" height="60" as="geometry" />
        </mxCell>
        <mxCell id="l22yweQC2O0AIqLFnT07-24" value="" style="rounded=0;whiteSpace=wrap;html=1;strokeColor=#000000;fillColor=#FFFFFF;" vertex="1" parent="oFfzEaIJzjR-xGKn51mv-1">
          <mxGeometry x="300" y="330" width="90" height="60" as="geometry" />
        </mxCell>
        <mxCell id="l22yweQC2O0AIqLFnT07-25" value="" style="rounded=0;whiteSpace=wrap;html=1;strokeColor=#000000;fillColor=#FFFFFF;" vertex="1" parent="oFfzEaIJzjR-xGKn51mv-1">
          <mxGeometry x="70" y="390" width="320" height="60" as="geometry" />
        </mxCell>
        <mxCell id="l22yweQC2O0AIqLFnT07-26" value="- skldfklsdfk dfg dfgdfgdfg dfgdfgdfg&amp;nbsp;" style="text;html=1;strokeColor=none;fillColor=none;align=center;verticalAlign=middle;whiteSpace=wrap;rounded=0;" vertex="1" parent="oFfzEaIJzjR-xGKn51mv-1">
          <mxGeometry x="95" y="410" width="225" height="20" as="geometry" />
        </mxCell>
        <mxCell id="l22yweQC2O0AIqLFnT07-27" value="" style="rounded=0;whiteSpace=wrap;html=1;strokeColor=#000000;fillColor=#FFFFFF;" vertex="1" parent="oFfzEaIJzjR-xGKn51mv-1">
          <mxGeometry x="70" y="450" width="320" height="60" as="geometry" />
        </mxCell>
        <mxCell id="l22yweQC2O0AIqLFnT07-28" value="- skldfklsdfk dfg dfgdfgdfg dfgdfgdfg&amp;nbsp;" style="text;html=1;strokeColor=none;fillColor=none;align=center;verticalAlign=middle;whiteSpace=wrap;rounded=0;" vertex="1" parent="oFfzEaIJzjR-xGKn51mv-1">
          <mxGeometry x="95" y="470" width="225" height="20" as="geometry" />
        </mxCell>
        <mxCell id="l22yweQC2O0AIqLFnT07-29" value="" style="rounded=0;whiteSpace=wrap;html=1;strokeColor=#000000;fillColor=#FFFFFF;" vertex="1" parent="oFfzEaIJzjR-xGKn51mv-1">
          <mxGeometry x="70" y="510" width="320" height="60" as="geometry" />
        </mxCell>
        <mxCell id="l22yweQC2O0AIqLFnT07-30" value="- skldfklsdfk dfg dfgdfgdfg dfgdfgdfg&amp;nbsp;" style="text;html=1;strokeColor=none;fillColor=none;align=center;verticalAlign=middle;whiteSpace=wrap;rounded=0;" vertex="1" parent="oFfzEaIJzjR-xGKn51mv-1">
          <mxGeometry x="95" y="530" width="225" height="20" as="geometry" />
        </mxCell>
        <mxCell id="l22yweQC2O0AIqLFnT07-31" value="" style="rounded=0;whiteSpace=wrap;html=1;strokeColor=#000000;fillColor=#FFFFFF;" vertex="1" parent="oFfzEaIJzjR-xGKn51mv-1">
          <mxGeometry x="70" y="570" width="320" height="60" as="geometry" />
        </mxCell>
        <mxCell id="l22yweQC2O0AIqLFnT07-32" value="- skldfklsdfk dfg dfgdfgdfg dfgdfgdfg&amp;nbsp;" style="text;html=1;strokeColor=none;fillColor=none;align=center;verticalAlign=middle;whiteSpace=wrap;rounded=0;" vertex="1" parent="oFfzEaIJzjR-xGKn51mv-1">
          <mxGeometry x="95" y="590" width="225" height="20" as="geometry" />
        </mxCell>
        <mxCell id="l22yweQC2O0AIqLFnT07-33" value="" style="rounded=0;whiteSpace=wrap;html=1;strokeColor=#000000;fillColor=#FFFFFF;" vertex="1" parent="oFfzEaIJzjR-xGKn51mv-1">
          <mxGeometry x="70" y="630" width="320" height="60" as="geometry" />
        </mxCell>
        <mxCell id="l22yweQC2O0AIqLFnT07-34" value="- skldfklsdfk dfg dfgdfgdfg dfgdfgdfg&amp;nbsp;" style="text;html=1;strokeColor=none;fillColor=none;align=center;verticalAlign=middle;whiteSpace=wrap;rounded=0;" vertex="1" parent="oFfzEaIJzjR-xGKn51mv-1">
          <mxGeometry x="95" y="640" width="225" height="20" as="geometry" />
        </mxCell>
        <mxCell id="l22yweQC2O0AIqLFnT07-35" value="" style="rounded=1;whiteSpace=wrap;html=1;strokeColor=#000000;fillColor=#FFFFFF;" vertex="1" parent="oFfzEaIJzjR-xGKn51mv-1">
          <mxGeometry x="410" y="290" width="320" height="440" as="geometry" />
        </mxCell>
        <mxCell id="l22yweQC2O0AIqLFnT07-36" value="" style="rounded=0;whiteSpace=wrap;html=1;strokeColor=#000000;fillColor=#FFFFFF;" vertex="1" parent="oFfzEaIJzjR-xGKn51mv-1">
          <mxGeometry x="410" y="330" width="160" height="60" as="geometry" />
        </mxCell>
        <mxCell id="l22yweQC2O0AIqLFnT07-37" value="" style="rounded=0;whiteSpace=wrap;html=1;strokeColor=#000000;fillColor=#FFFFFF;" vertex="1" parent="oFfzEaIJzjR-xGKn51mv-1">
          <mxGeometry x="570" y="330" width="160" height="60" as="geometry" />
        </mxCell>
        <mxCell id="l22yweQC2O0AIqLFnT07-38" value="" style="rounded=0;whiteSpace=wrap;html=1;strokeColor=#000000;fillColor=#FFFFFF;" vertex="1" parent="oFfzEaIJzjR-xGKn51mv-1">
          <mxGeometry x="410" y="390" width="320" height="60" as="geometry" />
        </mxCell>
        <mxCell id="l22yweQC2O0AIqLFnT07-39" value="- skldfklsdfk dfg dfgdfgdfg dfgdfgdfg&amp;nbsp;" style="text;html=1;strokeColor=none;fillColor=none;align=center;verticalAlign=middle;whiteSpace=wrap;rounded=0;" vertex="1" parent="oFfzEaIJzjR-xGKn51mv-1">
          <mxGeometry x="435" y="410" width="225" height="20" as="geometry" />
        </mxCell>
        <mxCell id="l22yweQC2O0AIqLFnT07-40" value="" style="rounded=0;whiteSpace=wrap;html=1;strokeColor=#000000;fillColor=#FFFFFF;" vertex="1" parent="oFfzEaIJzjR-xGKn51mv-1">
          <mxGeometry x="410" y="450" width="320" height="60" as="geometry" />
        </mxCell>
        <mxCell id="l22yweQC2O0AIqLFnT07-41" value="- skldfklsdfk dfg dfgdfgdfg dfgdfgdfg&amp;nbsp;" style="text;html=1;strokeColor=none;fillColor=none;align=center;verticalAlign=middle;whiteSpace=wrap;rounded=0;" vertex="1" parent="oFfzEaIJzjR-xGKn51mv-1">
          <mxGeometry x="435" y="470" width="225" height="20" as="geometry" />
        </mxCell>
        <mxCell id="l22yweQC2O0AIqLFnT07-42" value="" style="rounded=0;whiteSpace=wrap;html=1;strokeColor=#000000;fillColor=#FFFFFF;" vertex="1" parent="oFfzEaIJzjR-xGKn51mv-1">
          <mxGeometry x="410" y="510" width="320" height="60" as="geometry" />
        </mxCell>
        <mxCell id="l22yweQC2O0AIqLFnT07-43" value="- skldfklsdfk dfg dfgdfgdfg dfgdfgdfg&amp;nbsp;" style="text;html=1;strokeColor=none;fillColor=none;align=center;verticalAlign=middle;whiteSpace=wrap;rounded=0;" vertex="1" parent="oFfzEaIJzjR-xGKn51mv-1">
          <mxGeometry x="435" y="530" width="225" height="20" as="geometry" />
        </mxCell>
        <mxCell id="l22yweQC2O0AIqLFnT07-44" value="" style="rounded=0;whiteSpace=wrap;html=1;strokeColor=#000000;fillColor=#FFFFFF;" vertex="1" parent="oFfzEaIJzjR-xGKn51mv-1">
          <mxGeometry x="410" y="570" width="320" height="60" as="geometry" />
        </mxCell>
        <mxCell id="l22yweQC2O0AIqLFnT07-45" value="- skldfklsdfk dfg dfgdfgdfg dfgdfgdfg&amp;nbsp;" style="text;html=1;strokeColor=none;fillColor=none;align=center;verticalAlign=middle;whiteSpace=wrap;rounded=0;" vertex="1" parent="oFfzEaIJzjR-xGKn51mv-1">
          <mxGeometry x="435" y="590" width="225" height="20" as="geometry" />
        </mxCell>
        <mxCell id="l22yweQC2O0AIqLFnT07-46" value="" style="rounded=0;whiteSpace=wrap;html=1;strokeColor=#000000;fillColor=#FFFFFF;" vertex="1" parent="oFfzEaIJzjR-xGKn51mv-1">
          <mxGeometry x="410" y="630" width="320" height="60" as="geometry" />
        </mxCell>
        <mxCell id="l22yweQC2O0AIqLFnT07-47" value="- skldfklsdfk dfg dfgdfgdfg dfgdfgdfg&amp;nbsp;" style="text;html=1;strokeColor=none;fillColor=none;align=center;verticalAlign=middle;whiteSpace=wrap;rounded=0;" vertex="1" parent="oFfzEaIJzjR-xGKn51mv-1">
          <mxGeometry x="435" y="640" width="225" height="20" as="geometry" />
        </mxCell>
        <mxCell id="l22yweQC2O0AIqLFnT07-48" value="" style="rounded=1;whiteSpace=wrap;html=1;strokeColor=#000000;fillColor=#FFFFFF;" vertex="1" parent="oFfzEaIJzjR-xGKn51mv-1">
          <mxGeometry x="750" y="290" width="320" height="440" as="geometry" />
        </mxCell>
        <mxCell id="l22yweQC2O0AIqLFnT07-49" value="" style="rounded=0;whiteSpace=wrap;html=1;strokeColor=#000000;fillColor=#FFFFFF;" vertex="1" parent="oFfzEaIJzjR-xGKn51mv-1">
          <mxGeometry x="750" y="330" width="170" height="60" as="geometry" />
        </mxCell>
        <mxCell id="l22yweQC2O0AIqLFnT07-50" value="" style="rounded=0;whiteSpace=wrap;html=1;strokeColor=#000000;fillColor=#FFFFFF;" vertex="1" parent="oFfzEaIJzjR-xGKn51mv-1">
          <mxGeometry x="920" y="330" width="150" height="60" as="geometry" />
        </mxCell>
        <mxCell id="l22yweQC2O0AIqLFnT07-51" value="" style="rounded=0;whiteSpace=wrap;html=1;strokeColor=#000000;fillColor=#FFFFFF;" vertex="1" parent="oFfzEaIJzjR-xGKn51mv-1">
          <mxGeometry x="750" y="390" width="320" height="60" as="geometry" />
        </mxCell>
        <mxCell id="l22yweQC2O0AIqLFnT07-52" value="- skldfklsdfk dfg dfgdfgdfg dfgdfgdfg&amp;nbsp;" style="text;html=1;strokeColor=none;fillColor=none;align=center;verticalAlign=middle;whiteSpace=wrap;rounded=0;" vertex="1" parent="oFfzEaIJzjR-xGKn51mv-1">
          <mxGeometry x="775" y="410" width="225" height="20" as="geometry" />
        </mxCell>
        <mxCell id="l22yweQC2O0AIqLFnT07-53" value="" style="rounded=0;whiteSpace=wrap;html=1;strokeColor=#000000;fillColor=#FFFFFF;" vertex="1" parent="oFfzEaIJzjR-xGKn51mv-1">
          <mxGeometry x="750" y="450" width="320" height="60" as="geometry" />
        </mxCell>
        <mxCell id="l22yweQC2O0AIqLFnT07-54" value="- skldfklsdfk dfg dfgdfgdfg dfgdfgdfg&amp;nbsp;" style="text;html=1;strokeColor=none;fillColor=none;align=center;verticalAlign=middle;whiteSpace=wrap;rounded=0;" vertex="1" parent="oFfzEaIJzjR-xGKn51mv-1">
          <mxGeometry x="775" y="470" width="225" height="20" as="geometry" />
        </mxCell>
        <mxCell id="l22yweQC2O0AIqLFnT07-55" value="" style="rounded=0;whiteSpace=wrap;html=1;strokeColor=#000000;fillColor=#FFFFFF;" vertex="1" parent="oFfzEaIJzjR-xGKn51mv-1">
          <mxGeometry x="750" y="510" width="320" height="60" as="geometry" />
        </mxCell>
        <mxCell id="l22yweQC2O0AIqLFnT07-56" value="- skldfklsdfk dfg dfgdfgdfg dfgdfgdfg&amp;nbsp;" style="text;html=1;strokeColor=none;fillColor=none;align=center;verticalAlign=middle;whiteSpace=wrap;rounded=0;" vertex="1" parent="oFfzEaIJzjR-xGKn51mv-1">
          <mxGeometry x="775" y="530" width="225" height="20" as="geometry" />
        </mxCell>
        <mxCell id="l22yweQC2O0AIqLFnT07-57" value="" style="rounded=0;whiteSpace=wrap;html=1;strokeColor=#000000;fillColor=#FFFFFF;" vertex="1" parent="oFfzEaIJzjR-xGKn51mv-1">
          <mxGeometry x="750" y="570" width="320" height="60" as="geometry" />
        </mxCell>
        <mxCell id="l22yweQC2O0AIqLFnT07-58" value="- skldfklsdfk dfg dfgdfgdfg dfgdfgdfg&amp;nbsp;" style="text;html=1;strokeColor=none;fillColor=none;align=center;verticalAlign=middle;whiteSpace=wrap;rounded=0;" vertex="1" parent="oFfzEaIJzjR-xGKn51mv-1">
          <mxGeometry x="775" y="590" width="225" height="20" as="geometry" />
        </mxCell>
        <mxCell id="l22yweQC2O0AIqLFnT07-59" value="" style="rounded=0;whiteSpace=wrap;html=1;strokeColor=#000000;fillColor=#FFFFFF;" vertex="1" parent="oFfzEaIJzjR-xGKn51mv-1">
          <mxGeometry x="750" y="630" width="320" height="60" as="geometry" />
        </mxCell>
        <mxCell id="l22yweQC2O0AIqLFnT07-60" value="- skldfklsdfk dfg dfgdfgdfg dfgdfgdfg&amp;nbsp;" style="text;html=1;strokeColor=none;fillColor=none;align=center;verticalAlign=middle;whiteSpace=wrap;rounded=0;" vertex="1" parent="oFfzEaIJzjR-xGKn51mv-1">
          <mxGeometry x="775" y="640" width="225" height="20" as="geometry" />
        </mxCell>
        <mxCell id="l22yweQC2O0AIqLFnT07-61" value="Tips &amp;amp; tanker" style="text;html=1;strokeColor=none;fillColor=none;align=center;verticalAlign=middle;whiteSpace=wrap;rounded=0;" vertex="1" parent="oFfzEaIJzjR-xGKn51mv-1">
          <mxGeometry x="130" y="300" width="200" height="20" as="geometry" />
        </mxCell>
        <mxCell id="l22yweQC2O0AIqLFnT07-62" value="Tips &amp;amp; tanker" style="text;html=1;strokeColor=none;fillColor=none;align=center;verticalAlign=middle;whiteSpace=wrap;rounded=0;" vertex="1" parent="oFfzEaIJzjR-xGKn51mv-1">
          <mxGeometry x="480" y="300" width="200" height="20" as="geometry" />
        </mxCell>
        <mxCell id="l22yweQC2O0AIqLFnT07-63" value="Tips &amp;amp; tanker" style="text;html=1;strokeColor=none;fillColor=none;align=center;verticalAlign=middle;whiteSpace=wrap;rounded=0;" vertex="1" parent="oFfzEaIJzjR-xGKn51mv-1">
          <mxGeometry x="830" y="300" width="200" height="20" as="geometry" />
        </mxCell>
        <mxCell id="l22yweQC2O0AIqLFnT07-64" value="" style="rounded=1;whiteSpace=wrap;html=1;strokeColor=#000000;fillColor=#FFFFFF;" vertex="1" parent="oFfzEaIJzjR-xGKn51mv-1">
          <mxGeometry x="330" y="400" width="50" height="40" as="geometry" />
        </mxCell>
        <mxCell id="l22yweQC2O0AIqLFnT07-65" value="" style="rounded=1;whiteSpace=wrap;html=1;strokeColor=#000000;fillColor=#FFFFFF;" vertex="1" parent="oFfzEaIJzjR-xGKn51mv-1">
          <mxGeometry x="330" y="460" width="50" height="40" as="geometry" />
        </mxCell>
        <mxCell id="l22yweQC2O0AIqLFnT07-66" value="" style="rounded=1;whiteSpace=wrap;html=1;strokeColor=#000000;fillColor=#FFFFFF;" vertex="1" parent="oFfzEaIJzjR-xGKn51mv-1">
          <mxGeometry x="330" y="520" width="50" height="40" as="geometry" />
        </mxCell>
        <mxCell id="l22yweQC2O0AIqLFnT07-67" value="" style="rounded=1;whiteSpace=wrap;html=1;strokeColor=#000000;fillColor=#FFFFFF;" vertex="1" parent="oFfzEaIJzjR-xGKn51mv-1">
          <mxGeometry x="330" y="580" width="50" height="40" as="geometry" />
        </mxCell>
        <mxCell id="l22yweQC2O0AIqLFnT07-68" value="" style="rounded=1;whiteSpace=wrap;html=1;strokeColor=#000000;fillColor=#FFFFFF;" vertex="1" parent="oFfzEaIJzjR-xGKn51mv-1">
          <mxGeometry x="330" y="640" width="50" height="40" as="geometry" />
        </mxCell>
        <mxCell id="l22yweQC2O0AIqLFnT07-69" value="" style="rounded=1;whiteSpace=wrap;html=1;strokeColor=#000000;fillColor=#FFFFFF;" vertex="1" parent="oFfzEaIJzjR-xGKn51mv-1">
          <mxGeometry x="670" y="400" width="50" height="40" as="geometry" />
        </mxCell>
        <mxCell id="l22yweQC2O0AIqLFnT07-70" value="" style="rounded=1;whiteSpace=wrap;html=1;strokeColor=#000000;fillColor=#FFFFFF;" vertex="1" parent="oFfzEaIJzjR-xGKn51mv-1">
          <mxGeometry x="670" y="460" width="50" height="40" as="geometry" />
        </mxCell>
        <mxCell id="l22yweQC2O0AIqLFnT07-71" value="" style="rounded=1;whiteSpace=wrap;html=1;strokeColor=#000000;fillColor=#FFFFFF;" vertex="1" parent="oFfzEaIJzjR-xGKn51mv-1">
          <mxGeometry x="670" y="520" width="50" height="40" as="geometry" />
        </mxCell>
        <mxCell id="l22yweQC2O0AIqLFnT07-72" value="" style="rounded=1;whiteSpace=wrap;html=1;strokeColor=#000000;fillColor=#FFFFFF;" vertex="1" parent="oFfzEaIJzjR-xGKn51mv-1">
          <mxGeometry x="670" y="580" width="50" height="40" as="geometry" />
        </mxCell>
        <mxCell id="l22yweQC2O0AIqLFnT07-73" value="" style="rounded=1;whiteSpace=wrap;html=1;strokeColor=#000000;fillColor=#FFFFFF;" vertex="1" parent="oFfzEaIJzjR-xGKn51mv-1">
          <mxGeometry x="670" y="640" width="50" height="40" as="geometry" />
        </mxCell>
        <mxCell id="l22yweQC2O0AIqLFnT07-74" value="" style="rounded=1;whiteSpace=wrap;html=1;strokeColor=#000000;fillColor=#FFFFFF;" vertex="1" parent="oFfzEaIJzjR-xGKn51mv-1">
          <mxGeometry x="1010" y="400" width="50" height="40" as="geometry" />
        </mxCell>
        <mxCell id="l22yweQC2O0AIqLFnT07-75" value="" style="rounded=1;whiteSpace=wrap;html=1;strokeColor=#000000;fillColor=#FFFFFF;" vertex="1" parent="oFfzEaIJzjR-xGKn51mv-1">
          <mxGeometry x="1010" y="460" width="50" height="40" as="geometry" />
        </mxCell>
        <mxCell id="l22yweQC2O0AIqLFnT07-76" value="" style="rounded=1;whiteSpace=wrap;html=1;strokeColor=#000000;fillColor=#FFFFFF;" vertex="1" parent="oFfzEaIJzjR-xGKn51mv-1">
          <mxGeometry x="1010" y="520" width="50" height="40" as="geometry" />
        </mxCell>
        <mxCell id="l22yweQC2O0AIqLFnT07-77" value="" style="rounded=1;whiteSpace=wrap;html=1;strokeColor=#000000;fillColor=#FFFFFF;" vertex="1" parent="oFfzEaIJzjR-xGKn51mv-1">
          <mxGeometry x="1010" y="580" width="50" height="40" as="geometry" />
        </mxCell>
        <mxCell id="l22yweQC2O0AIqLFnT07-78" value="" style="rounded=1;whiteSpace=wrap;html=1;strokeColor=#000000;fillColor=#FFFFFF;" vertex="1" parent="oFfzEaIJzjR-xGKn51mv-1">
          <mxGeometry x="1010" y="640" width="50" height="40" as="geometry" />
        </mxCell>
        <mxCell id="l22yweQC2O0AIqLFnT07-80" value="" style="shape=card;whiteSpace=wrap;html=1;strokeColor=#000000;fillColor=none;rotation=0;size=60;" vertex="1" parent="oFfzEaIJzjR-xGKn51mv-1">
          <mxGeometry x="550" y="750" width="550" height="50" as="geometry" />
        </mxCell>
        <mxCell id="l22yweQC2O0AIqLFnT07-81" value="" style="endArrow=none;html=1;" edge="1" parent="oFfzEaIJzjR-xGKn51mv-1">
          <mxGeometry width="50" height="50" relative="1" as="geometry">
            <mxPoint x="630" y="800" as="sourcePoint" />
            <mxPoint x="680" y="750" as="targetPoint" />
          </mxGeometry>
        </mxCell>
        <mxCell id="l22yweQC2O0AIqLFnT07-82" value="" style="endArrow=none;html=1;" edge="1" parent="oFfzEaIJzjR-xGKn51mv-1">
          <mxGeometry width="50" height="50" relative="1" as="geometry">
            <mxPoint x="760" y="800" as="sourcePoint" />
            <mxPoint x="810" y="750" as="targetPoint" />
          </mxGeometry>
        </mxCell>
        <mxCell id="l22yweQC2O0AIqLFnT07-83" value="" style="endArrow=none;html=1;" edge="1" parent="oFfzEaIJzjR-xGKn51mv-1">
          <mxGeometry width="50" height="50" relative="1" as="geometry">
            <mxPoint x="885" y="800" as="sourcePoint" />
            <mxPoint x="935" y="750" as="targetPoint" />
          </mxGeometry>
        </mxCell>
        <mxCell id="l22yweQC2O0AIqLFnT07-84" value="" style="endArrow=none;html=1;" edge="1" parent="oFfzEaIJzjR-xGKn51mv-1">
          <mxGeometry width="50" height="50" relative="1" as="geometry">
            <mxPoint x="990" y="800" as="sourcePoint" />
            <mxPoint x="1040" y="750" as="targetPoint" />
          </mxGeometry>
        </mxCell>
        <mxCell id="l22yweQC2O0AIqLFnT07-86" value="- dfgdfg dfgdfg dfgdgdf gdfgd" style="text;html=1;strokeColor=none;fillColor=none;align=center;verticalAlign=middle;whiteSpace=wrap;rounded=0;" vertex="1" parent="oFfzEaIJzjR-xGKn51mv-1">
          <mxGeometry x="110" y="350" width="270" height="50" as="geometry" />
        </mxCell>
        <mxCell id="l22yweQC2O0AIqLFnT07-89" value="- dfgdfg dfgdfg dfgdgdf gdfgd" style="text;html=1;strokeColor=none;fillColor=none;align=center;verticalAlign=middle;whiteSpace=wrap;rounded=0;" vertex="1" parent="oFfzEaIJzjR-xGKn51mv-1">
          <mxGeometry x="110" y="420" width="270" height="50" as="geometry" />
        </mxCell>
        <mxCell id="l22yweQC2O0AIqLFnT07-90" value="- dfgdfg dfgdfg dfgdgdf gdfgd" style="text;html=1;strokeColor=none;fillColor=none;align=center;verticalAlign=middle;whiteSpace=wrap;rounded=0;" vertex="1" parent="oFfzEaIJzjR-xGKn51mv-1">
          <mxGeometry x="100" y="485" width="270" height="50" as="geometry" />
        </mxCell>
        <mxCell id="l22yweQC2O0AIqLFnT07-91" value="- dfgdfg dfgdfg dfgdgdf gdfgd" style="text;html=1;strokeColor=none;fillColor=none;align=center;verticalAlign=middle;whiteSpace=wrap;rounded=0;" vertex="1" parent="oFfzEaIJzjR-xGKn51mv-1">
          <mxGeometry x="430" y="360" width="270" height="50" as="geometry" />
        </mxCell>
        <mxCell id="l22yweQC2O0AIqLFnT07-92" value="- dfgdfg dfgdfg dfgdgdf gdfgd" style="text;html=1;strokeColor=none;fillColor=none;align=center;verticalAlign=middle;whiteSpace=wrap;rounded=0;" vertex="1" parent="oFfzEaIJzjR-xGKn51mv-1">
          <mxGeometry x="430" y="435" width="270" height="50" as="geometry" />
        </mxCell>
        <mxCell id="l22yweQC2O0AIqLFnT07-93" value="- dfgdfg dfgdfg dfgdgdf gdfgd" style="text;html=1;strokeColor=none;fillColor=none;align=center;verticalAlign=middle;whiteSpace=wrap;rounded=0;" vertex="1" parent="oFfzEaIJzjR-xGKn51mv-1">
          <mxGeometry x="435" y="500" width="270" height="50" as="geometry" />
        </mxCell>
        <mxCell id="l22yweQC2O0AIqLFnT07-94" value="- dfgdfg dfgdfg dfgdgdf gdfgd" style="text;html=1;strokeColor=none;fillColor=none;align=center;verticalAlign=middle;whiteSpace=wrap;rounded=0;" vertex="1" parent="oFfzEaIJzjR-xGKn51mv-1">
          <mxGeometry x="780" y="430" width="270" height="50" as="geometry" />
        </mxCell>
        <mxCell id="l22yweQC2O0AIqLFnT07-95" value="- dfgdfg dfgdfg dfgdgdf gdfgd" style="text;html=1;strokeColor=none;fillColor=none;align=center;verticalAlign=middle;whiteSpace=wrap;rounded=0;" vertex="1" parent="oFfzEaIJzjR-xGKn51mv-1">
          <mxGeometry x="780" y="360" width="270" height="50" as="geometry" />
        </mxCell>
        <mxCell id="l22yweQC2O0AIqLFnT07-96" value="- dfgdfg dfgdfg dfgdgdf gdfgd" style="text;html=1;strokeColor=none;fillColor=none;align=center;verticalAlign=middle;whiteSpace=wrap;rounded=0;" vertex="1" parent="oFfzEaIJzjR-xGKn51mv-1">
          <mxGeometry x="775" y="490" width="270" height="50" as="geometry" />
        </mxCell>
        <mxCell id="l22yweQC2O0AIqLFnT07-98" value="" style="rounded=1;whiteSpace=wrap;html=1;strokeColor=#000000;fillColor=#E6E6E6;" vertex="1" parent="oFfzEaIJzjR-xGKn51mv-1">
          <mxGeometry x="70" y="290" width="320" height="270" as="geometry" />
        </mxCell>
        <mxCell id="l22yweQC2O0AIqLFnT07-85" value="" style="rounded=0;whiteSpace=wrap;html=1;strokeColor=#000000;fillColor=#E6E6E6;" vertex="1" parent="oFfzEaIJzjR-xGKn51mv-1">
          <mxGeometry x="70" y="330" width="1000" height="230" as="geometry" />
        </mxCell>
        <mxCell id="l22yweQC2O0AIqLFnT07-99" value="Tips &amp;amp; tanker" style="text;html=1;strokeColor=none;fillColor=none;align=center;verticalAlign=middle;whiteSpace=wrap;rounded=0;" vertex="1" parent="oFfzEaIJzjR-xGKn51mv-1">
          <mxGeometry x="135" y="300" width="200" height="20" as="geometry" />
        </mxCell>
        <mxCell id="l22yweQC2O0AIqLFnT07-100" value="- skldfklsdfk dfg dfgdfgdfg dfgdfgdfg&amp;nbsp;" style="text;html=1;strokeColor=none;fillColor=none;align=center;verticalAlign=middle;whiteSpace=wrap;rounded=0;" vertex="1" parent="oFfzEaIJzjR-xGKn51mv-1">
          <mxGeometry x="105" y="360" width="225" height="20" as="geometry" />
        </mxCell>
        <mxCell id="l22yweQC2O0AIqLFnT07-101" value="- skldfklsdfk dfg dfgdfgdfg dfgdfgdfg&amp;nbsp;" style="text;html=1;strokeColor=none;fillColor=none;align=center;verticalAlign=middle;whiteSpace=wrap;rounded=0;" vertex="1" parent="oFfzEaIJzjR-xGKn51mv-1">
          <mxGeometry x="110" y="430" width="225" height="20" as="geometry" />
        </mxCell>
        <mxCell id="l22yweQC2O0AIqLFnT07-102" value="- skldfklsdfk dfg dfgdfgdfg dfgdfgdfg&amp;nbsp;" style="text;html=1;strokeColor=none;fillColor=none;align=center;verticalAlign=middle;whiteSpace=wrap;rounded=0;" vertex="1" parent="oFfzEaIJzjR-xGKn51mv-1">
          <mxGeometry x="100" y="480" width="225" height="20" as="geometry" />
        </mxCell>
        <mxCell id="l22yweQC2O0AIqLFnT07-103" value="- skldfklsdfk dfg dfgdfgdfg dfgdfgdfg&amp;nbsp;" style="text;html=1;strokeColor=none;fillColor=none;align=center;verticalAlign=middle;whiteSpace=wrap;rounded=0;" vertex="1" parent="oFfzEaIJzjR-xGKn51mv-1">
          <mxGeometry x="390" y="350" width="225" height="20" as="geometry" />
        </mxCell>
        <mxCell id="l22yweQC2O0AIqLFnT07-104" value="- skldfklsdfk dfg dfgdfgdfg dfgdfgdfg&amp;nbsp;" style="text;html=1;strokeColor=none;fillColor=none;align=center;verticalAlign=middle;whiteSpace=wrap;rounded=0;" vertex="1" parent="oFfzEaIJzjR-xGKn51mv-1">
          <mxGeometry x="410" y="393.5" width="225" height="20" as="geometry" />
        </mxCell>
        <mxCell id="l22yweQC2O0AIqLFnT07-105" value="- skldfklsdfk dfg dfgdfgdfg dfgdfgdfg&amp;nbsp;" style="text;html=1;strokeColor=none;fillColor=none;align=center;verticalAlign=middle;whiteSpace=wrap;rounded=0;" vertex="1" parent="oFfzEaIJzjR-xGKn51mv-1">
          <mxGeometry x="400" y="440" width="225" height="20" as="geometry" />
        </mxCell>
        <mxCell id="l22yweQC2O0AIqLFnT07-106" value="- skldfklsdfk dfg dfgdfgdfg dfgdfgdfg&amp;nbsp;" style="text;html=1;strokeColor=none;fillColor=none;align=center;verticalAlign=middle;whiteSpace=wrap;rounded=0;" vertex="1" parent="oFfzEaIJzjR-xGKn51mv-1">
          <mxGeometry x="400" y="500" width="225" height="20" as="geometry" />
        </mxCell>
        <mxCell id="l22yweQC2O0AIqLFnT07-107" value="- skldfklsdfk dfg dfgdfgdfg dfgdfgdfg&amp;nbsp;" style="text;html=1;strokeColor=none;fillColor=none;align=center;verticalAlign=middle;whiteSpace=wrap;rounded=0;" vertex="1" parent="oFfzEaIJzjR-xGKn51mv-1">
          <mxGeometry x="690" y="350" width="225" height="20" as="geometry" />
        </mxCell>
        <mxCell id="l22yweQC2O0AIqLFnT07-108" value="- skldfklsdfk dfg dfgdfgdfg dfgdfgdfg&amp;nbsp;" style="text;html=1;strokeColor=none;fillColor=none;align=center;verticalAlign=middle;whiteSpace=wrap;rounded=0;" vertex="1" parent="oFfzEaIJzjR-xGKn51mv-1">
          <mxGeometry x="690" y="410" width="225" height="20" as="geometry" />
        </mxCell>
        <mxCell id="l22yweQC2O0AIqLFnT07-109" value="- skldfklsdfk dfg dfgdfgdfg dfgdfgdfg&amp;nbsp;" style="text;html=1;strokeColor=none;fillColor=none;align=center;verticalAlign=middle;whiteSpace=wrap;rounded=0;" vertex="1" parent="oFfzEaIJzjR-xGKn51mv-1">
          <mxGeometry x="680" y="460" width="225" height="20" as="geometry" />
        </mxCell>
        <mxCell id="l22yweQC2O0AIqLFnT07-110" value="- skldfklsdfk dfg dfgdfgdfg dfgdfgdfg&amp;nbsp;" style="text;html=1;strokeColor=none;fillColor=none;align=center;verticalAlign=middle;whiteSpace=wrap;rounded=0;" vertex="1" parent="oFfzEaIJzjR-xGKn51mv-1">
          <mxGeometry x="680" y="510" width="225" height="20" as="geometry" />
        </mxCell>
      </root>
    </mxGraphModel>
  </diagram>
</mxfile>
